<svg xmlns="http://www.w3.org/2000/svg" version="1.1" xmlns:xlink="http://www.w3.org/1999/xlink" xmlns:svgjs="http://svgjs.dev/svgjs" width="100%" height="100%" viewBox="0 0 1000 600"><rect width="1000" height="600" x="0" y="0" fill="#2b3252"/><g><rect width="333.3333333333333" height="333.3333333333333" rx="13.333333333333334" ry="13.333333333333334" y="78.62721945859181" fill="#fad744" transform="matrix(2.2161154407139976,0,0,2.2161154407139976,3.0990632545014245,-243.59959357166326)" x="57.55491256713867"/><path d="M130.70207098312275 263.0046981352864L134.42214839917844 275.5882643513356L81.79114008680797 275.5882643513356L85.05833851308296 263.0046981352864L130.70207098312275 263.0046981352864ZM147.23215411011802 317.9647983951004L109.28736446635 207.55937038642162L71.0837868284216 317.9647983951004L55.006582691207015 317.9647983951004L108.57569748240891 170.2938992273247L110.45191044007177 170.2938992273247L164.02102523127368 317.9647983951004L147.23215411011802 317.9647983951004ZM202.2246028692021 317.9647983951004L185.92095923709718 317.9647983951004L185.92095923709718 172.62299117476823L269.50948135090493 172.62299117476823L269.50948135090493 186.82398235431992L202.2246028692021 186.82398235431992L202.2246028692021 232.50006332362977L256.473036145075 232.50006332362977L256.473036145075 246.70105450318147L202.2246028692021 246.70105450318147L202.2246028692021 317.9647983951004ZM350.5748205216489 320.293890342544L350.5748205216489 320.293890342544Q338.70292128954077 320.293890342544 328.4484470209351 315.9915399396274Q318.1939727523294 311.68918953671084 310.3979844282474 302.5992612418269Q302.60199610416555 293.509332946943 298.1702517041687 279.5347812622817Q293.738507304172 265.5602295776203 293.738507304172 246.2158270141307L293.738507304172 246.2158270141307Q293.738507304172 229.23286489735477 297.00570573044695 216.5199046842253Q300.272904156722 203.83929297036593 305.86919453044055 195.23459216453278Q311.43313640488907 186.5975428594296 318.67920024138016 181.48647997476178Q325.8929155786012 176.34306859082392 333.81829789976325 174.01397664338037Q341.71133172165537 171.68488469593677 349.6367140428175 171.68488469593677L349.6367140428175 171.68488469593677Q365.4874786851417 171.68488469593677 376.64771093330876 179.51322151928878Q387.84029168074596 187.3092098433707 393.43658205446445 200.34565504920062L393.43658205446445 200.34565504920062L379.4620303698031 206.88005190175056L377.35937791724984 207.785809881312L376.64771093330876 206.16838491780948Q377.35937791724984 204.29217196014662 376.64771093330876 202.80414099372433Q375.9683924486377 201.28376152803207 374.0921794909749 198.01656310175707L374.0921794909749 198.01656310175707Q368.269449622366 190.09118078059493 362.0908862617865 187.40625534118084Q355.9446714004771 184.75367840103678 349.1838350530368 184.75367840103678L349.1838350530368 184.75367840103678Q340.0939067581529 184.75367840103678 332.7507974238516 188.829589309063Q325.40768808955045 192.90550021708924 320.1672312078024 200.70148854117116Q314.92677432605444 208.49747686525308 312.2741973859103 219.69005761269017Q309.58927194649624 230.85028986085723 309.58927194649624 245.05128104040898L309.58927194649624 245.05128104040898Q309.58927194649624 258.79939323017993 312.727076375691 269.9919739776171Q315.86488080488584 281.15220622578414 321.3317771815242 289.3040280418366Q326.8310220574326 297.45584985788906 334.14178289246377 301.88759425788584Q341.48489222676494 306.3193386578826 349.86315353770783 306.3193386578826L349.86315353770783 306.3193386578826Q355.68588340631675 306.3193386578826 361.18512828222515 304.21668620532944Q366.6520246588635 302.1140337527762 371.3102085537506 298.03812284475Q375.9683924486377 293.96221193672375 379.23559087491265 288.62470955716554L379.23559087491265 288.62470955716554L391.3339296019112 296.5500918783277Q384.3466537595806 308.19555161554547 374.57740698002556 314.2447209790447Q364.7758117012006 320.293890342544 350.5748205216489 320.293890342544L350.5748205216489 320.293890342544Z " fill="#2b3252" transform="matrix(2.2161154407139976,0,0,2.2161154407139976,3.0990632545014245,-243.59959357166326)"/><path d="MNaN 245.29389047663813 " fill="#fad744" transform="matrix(2.2161154407139976,0,0,2.2161154407139976,3.0990632545014245,-243.59959357166326)"/></g></svg>